<?xml version="1.0" encoding="utf-8"?>
<!-- Generator: Adobe Illustrator 22.0.1, SVG Export Plug-In . SVG Version: 6.00 Build 0)  -->
<svg version="1.1" id="Layer_1" xmlns="http://www.w3.org/2000/svg" xmlns:xlink="http://www.w3.org/1999/xlink" x="0px" y="0px"
	 viewBox="0 0 235.3 113.4" style="enable-background:new 0 0 235.3 113.4;" xml:space="preserve">
<g>
	<path d="M0,51.5v0.8c1,0.8,3.9,0.4,3.9,5.4v20.7c0,3.3-2.1,2.6-3.4,4l-0.1,2.2c1.1,0.5,9.7,0.2,11.5,0.2v-2.6
		c-0.4-0.9-3.4-0.4-3.7-4.4C7.9,72.8,8,68.3,8,63.1l0.2-5.2l25.2,27h3.9l-0.1-30.3c1.1-1.6,3.4-1.1,3.5-3.1v-1.6H29.4v1.3
		c0,2.7,2.2,1.1,3.5,3.4v16.2L13.5,49.9H0V51.5L0,51.5z M120.6,100.9l1.5,1.8c1.8-0.9,2.9-2,5.3-1.2c1.5,0.5,3.1,2.2,3,3.9h-11.9
		c0,2.1,0.1,3.3,1.3,5c0.9,1.2,2.1,2.2,3.7,2.7c8.7,2.7,13-8.5,6.8-12.6C127.2,98.3,123.5,98.6,120.6,100.9L120.6,100.9z M99.1,113
		h2.5v-9.5l4.4,6.1l4.3-6.3v9.7h2.5V99.2h-2.6l-4.2,6.4l-4.3-6.4h-2.6L99.1,113L99.1,113z M174.9,100.9l1.5,1.8
		c1.8-0.9,2.9-2,5.3-1.2c1.5,0.5,3.1,2.3,3,3.9h-11.9c0,9.5,10.8,10.2,13.9,4.2c1.5-2.9,0.7-7.3-2.1-9.1
		C181.5,98.3,177.8,98.6,174.9,100.9L174.9,100.9z M175.8,107.6h9c-1.1,2.1-1.8,3.4-4.5,3.5C178.3,111,175.8,109.6,175.8,107.6
		L175.8,107.6z M49.1,113h2.5v-9.5l7.6,9.5h2V99.2h-2.5v9.3l-7.3-9.3h-2.3V113L49.1,113z M67.4,107.6c1.6,8.2,14,7.4,14.2-1.3
		c0.1-6.2-6.4-9.2-11-6.3C68,101.7,66.8,104.7,67.4,107.6L67.4,107.6z M78.9,107.3c-1.5,6.3-10.3,3.9-8.9-2.5
		C71.3,98.9,80.4,100.9,78.9,107.3L78.9,107.3z M138.9,113h2.4v-4.8h3.1l3.5,4.8h2.9l-3.7-5.1c2.4-1.2,3.3-1.9,3.3-4.6
		c0-2.3-2.3-4.1-4.5-4.1h-7V113L138.9,113z M141.4,106.1v-4.7c2.1,0,6.6-0.7,6.6,2.2C148,106.7,143.6,106.1,141.4,106.1L141.4,106.1
		z M23.1,113H25v-3.5c0-0.6,1.3-1.6,2.5-2.6l4.7,6.1h2.6l-6-7.9l6.1-5.9l-2.8-0.1l-7,6.7L25,99.3h-2V113H23.1z M156.1,113h1.9v-3.5
		c0-0.6,1.3-1.6,2.5-2.6l4.7,6.1h2.6l-6-7.9l6.1-5.9l-2.8-0.1l-7,6.7l-0.1-6.7h-2V113H156.1z M193,101.5h7.8l-8,10.3v1.2h11.3v-2
		l-8-0.1c0.3-0.3,6.5-8.3,7.5-9.5v-2.1H193V101.5L193,101.5z M40.3,113h2.3V99.2h-2.3V113L40.3,113z M40.3,96.4h2.2v-2.2h-2.2V96.4
		L40.3,96.4z M209.6,113h2.3V99.2h-2.3V113L209.6,113z M209.6,96.4h2.2v-2.2h-2.2V96.4L209.6,96.4z M121.5,107.6h9
		c-0.6,1.9-2,3.5-4.5,3.5C124.1,111,121.5,109.7,121.5,107.6L121.5,107.6z M124,15.2l-8.9-13.5c-0.6,0.5-5.1,7.6-7.9,10.4
		c-6.5,6.5-13.1,12-22.6,13.6c-3.4,0.6-13.7,1.2-15.8-1.4c1.2-1.6,1.8-2.3,1.7-4.6c-0.1-1.7-1.3-3.1-2.7-3.7
		c-7.2-3.4-11.9,7.1-3.3,11.6c2.8,1.5,3.9,1.9,7,2.3c8.8,1.2,15.7,0.4,23.3-3.9c2.5-1.4,5.4-3.2,7.7-4.9c2.2-1.7,5-3.7,6.9-5.7
		l4.4,6.7c1.4,2.3,2.9,4.5,4.4,6.8c0.5-0.3,3.1-4.4,3.8-5.3c6.6-8.9,15.7-16.7,26.7-18.8c3.2-0.6,13.9-1.3,15.9,1.3
		c-1.2,1.6-1.8,2.3-1.7,4.6c0.4,5.5,9.8,5.7,10.5,0.2c0.2-1.9,0.1-3.3-0.9-4.9c-0.9-1.3-2-2.3-3.4-3.1c-5.7-3.3-15.3-3.6-21.7-2.1
		s-15.1,6.9-20.2,11.3c-0.6,0.6-1,0.8-1.6,1.5L124,15.2L124,15.2z M71.5,57.9c0,1.6,0.8,1.3,3.4,1.2c1-1.3,1-5.2,5.8-5.6
		c3.5-0.2,7.9,0,11.5,0l-20,24.8c-2.8,3.3-2.5,2.5-2.5,6.6h35.8v-9.6h-2.9c-1,0-0.9,2.2-2.7,4c-3.2,3-13.8,2.1-18.2,2.1l23.8-29.6
		v-1.9h-34V57.9L71.5,57.9z M125.7,53.2l1.5,2.9c-2.1,3.2-5.7,10-8.1,13.8c-1.7,2.8-5.4,10.5-7.6,11.6c-2.4,1.2-1.9,0.1-2,3.4h12.7
		c0.4-3.2-0.6-2.4-2.5-3.5c-1.7-1-0.3-3.4,0.5-4.5l17.4-0.1c0.4,0.5,1.4,2.4,1.6,3c0.3,1.2-0.5,1.7-1.5,1.8c-0.7,0.2-1,0-1.5,0.6
		c-0.5,0.7-0.6,1.5-0.3,2.6h18.3v-2.5c-4.5-1.1-4.3-2.3-6.7-6.7l-9.4-17.4c-0.8-1.3-1.7-3-2.4-4.4c-2.8-5.5-2.1-5-6.4-2.8
		C128.3,51.6,126.4,52.3,125.7,53.2L125.7,53.2z M129.3,60.5l6.4,12.6h-13.4L129.3,60.5L129.3,60.5z M219,49.9
		c-0.3,0.5-0.2,1.5-0.1,2.2c0.7,1.5,3.7-0.3,3.6,5.6v18.9c0,8.2-4,2.8-3.5,8.3h16.2v-2.4c-0.9-0.9-2.3-0.5-3-2
		c-0.3-0.7-0.5-2-0.5-3.7c0-4.6-0.7-17.9,0.1-21.6c0.6-2.8,2.6-1.8,3.3-2.9v-2.4H219L219,49.9z M46.8,49.9c-0.2,0.6-0.2,1.5-0.1,2.2
		c0.7,1.4,3.7-0.3,3.6,5.6v18.9c0,1.1-0.1,3.2-0.7,4.1c-1.2,1.7-3.7,0.3-2.8,4.2H63v-2.4c-1-0.6-2-0.3-3.5-3l-0.1-24.4
		c0.4-1.4,2.1-1.9,2.9-2.3c0.8-0.5,0.6-1.7,0.6-2.8L46.8,49.9L46.8,49.9z M54.6,35.7c2.8,0,5,2.3,5,5.1s-2.3,5.1-5,5.1
		c-2.8,0-5-2.3-5-5.1C49.6,37.9,51.8,35.7,54.6,35.7L54.6,35.7z M227,35.7c2.8,0,5,2.3,5,5.1s-2.3,5.1-5,5.1c-2.8,0-5-2.3-5-5.1
		C222,37.9,224.3,35.7,227,35.7L227,35.7z M161.4,53.9c0.9,1.2,0.7,2.6,0.7,4.1v19c0,1.6,0.3,2.8-0.8,4c-1,1.1-3.2,1.2-3.2,2v1.8
		h12.3v-2.2c-2.5-0.9-4.1-0.5-4.1-3.4L166.1,56l14.6,28.8h3.9c0.2-1,13.8-29,14.2-29.4c0,2.3,0.3,23.4-0.3,24.6
		c-1.4,2.7-4.1,0.5-3,4.8h15.9l0.1-2.3c0-0.3,0.1-0.4-0.2-0.5c-3.2-1.2-3.2-1.9-3.2-5.5V57.9c0-6.4,1.2-4.1,3.4-5.9l0.1-2.2H197
		l-8.8,17.9c-0.5,1-0.9,1.9-1.4,3l-1.5,2.9c-0.9-1.2-11-21.8-12-23.8h-14.8C158.1,53.8,160.2,52.3,161.4,53.9L161.4,53.9z"/>
</g>
</svg>
